<svg xmlns="http://www.w3.org/2000/svg" width="77" height="77" viewBox="0 0 77 77">
  <metadata><?xpacket begin="﻿" id="W5M0MpCehiHzreSzNTczkc9d"?>
<x:xmpmeta xmlns:x="adobe:ns:meta/" x:xmptk="Adobe XMP Core 5.6-c138 79.159824, 2016/09/14-01:09:01        ">
   <rdf:RDF xmlns:rdf="http://www.w3.org/1999/02/22-rdf-syntax-ns#">
      <rdf:Description rdf:about=""/>
   </rdf:RDF>
</x:xmpmeta>
                                                                                                    
                                                                                                    
                                                                                                    
                                                                                                    
                                                                                                    
                                                                                                    
                                                                                                    
                                                                                                    
                                                                                                    
                                                                                                    
                                                                                                    
                                                                                                    
                                                                                                    
                                                                                                    
                                                                                                    
                                                                                                    
                                                                                                    
                                                                                                    
                                                                                                    
                                                                                                    
                           
<?xpacket end="w"?></metadata>
<defs>
    <style>
      .cls-1 {
        fill-rule: evenodd;
      }
    </style>
  </defs>
  <path id="Brain" class="cls-1" d="M1218.05,1119.68v-8.66l2.97,2.23,1.49-1.98-5.69-4.27-5.69,4.27,1.48,1.98,2.97-2.23v8.66a6.193,6.193,0,0,1-6.19,6.18h-4.94a8.516,8.516,0,0,0-8.3,6.19h-1.77l-0.05,2.47h1.46v3.86a12.594,12.594,0,0,0-9.77,2.58,8.559,8.559,0,0,0-8.79-2.35v-7.8a7.43,7.43,0,0,0-7.42-7.42h-1.24v-2.47h-2.47v2.47h-3.71a7.43,7.43,0,0,0-7.42,7.42v2.48a2.477,2.477,0,0,1-2.48,2.47h-2.47l2.23-2.97-1.98-1.48L1146,1137l4.27,5.69,1.98-1.49-2.23-2.97h2.47a4.955,4.955,0,0,0,4.95-4.95v-2.47a4.955,4.955,0,0,1,4.95-4.95h7.42a4.955,4.955,0,0,1,4.95,4.95v8.99a8.8,8.8,0,0,0-1.49,1.31,10.148,10.148,0,0,0-2.84-.4,17.107,17.107,0,0,0-15.98,25.27,10.288,10.288,0,0,0-.72,3.79,10.531,10.531,0,0,0,10.51,10.52,10.423,10.423,0,0,0,1.38-.1c0.09-.01.18-0.03,0.26-0.04a10.145,10.145,0,0,0,1.35-.3,10.458,10.458,0,0,0,11.89-.36,10.494,10.494,0,0,0,16.84.54,10.4,10.4,0,0,0,5.39,1.5,10.533,10.533,0,0,0,10.52-10.52,10.284,10.284,0,0,0-.66-3.64,10.479,10.479,0,0,0,2.96-9.35h0.17v-2.47h-0.94a10.565,10.565,0,0,0-6.57-5.75,12.908,12.908,0,0,0-8.57-10.82v-4.46a6.193,6.193,0,0,1,6.19-6.18h4.94A8.67,8.67,0,0,0,1218.05,1119.68Zm-13.63,31.15,0.04,0.98,0.96,0.19a8.022,8.022,0,0,1,5.21,3.64v2.38h0.99a7.652,7.652,0,0,1,.25,1.86,8.032,8.032,0,0,1-1.99,5.28,10.352,10.352,0,0,0-7.83-4.16l-0.16,2.31a7.816,7.816,0,0,1,7.49,7.98,8.033,8.033,0,0,1-12.97,6.06l-0.49-.39a8.032,8.032,0,0,1-2.6-5.41l-2.47.16a10.488,10.488,0,0,0,3.15,6.82,8.015,8.015,0,0,1-13.45-1.49l-0.76-1.53-1.22,1.21a7.971,7.971,0,0,1-8.49,1.8,10.511,10.511,0,0,0,4.68-8.74c0-.27-0.04-0.52-0.05-0.78a10.613,10.613,0,0,0,5.3-2.61l-1.68-1.82a7.913,7.913,0,0,1-4.09,1.99,10.519,10.519,0,0,0-5.1-6.1l-1.16,2.19a8.036,8.036,0,0,1-1,14.68,8.554,8.554,0,0,1-1.32.35c-0.03.01-.06,0.01-0.09,0.02a8.431,8.431,0,0,1-1.33.12,8.019,8.019,0,0,1-7.25-11.49l0.34-.71-0.51-.61a8.038,8.038,0,0,1,4.6-13.01l0.95-.19,0.04-.97a8.03,8.03,0,0,1,3.69-6.39v2.44h2.47v-3.49a7.966,7.966,0,0,1,4.69.3l0.88,0.34,0.56-.77a0.435,0.435,0,0,0,.06-0.07v6.16h2.47v-8.12a6.132,6.132,0,0,1,6.96,1.4,13.329,13.329,0,0,0-3.56,8.58c0,7.16,6.5,12.99,12.68,12.99v-2.48c-4.94,0-10.2-4.71-10.2-10.51a10.717,10.717,0,0,1,2.81-6.99l0.71-.6a10.509,10.509,0,0,1,7.26-2.92,10.828,10.828,0,0,1,1.9.17v4.77a6.2,6.2,0,0,1-6.19,6.19h-1.23v2.47h1.23a8.664,8.664,0,0,0,8.66-8.66v-4.01A10.454,10.454,0,0,1,1204.42,1150.83Zm-1.21,4.72h3.71v2.47h-3.71v-2.47Zm6.18-23.5h3.71v2.47h-3.71v-2.47Zm-19.19,1.3,1.25-2.14a6.347,6.347,0,0,1-2.19-2.15l-2.11,1.29A8.846,8.846,0,0,0,1190.2,1133.35Zm-4.31-7.49h0c0,0.13,0,.26.01,0.39l2.47-.28-0.01-3.82h-2.47v3.71Zm0-11.13h2.48v3.71h-2.48v-3.71Zm31.41,40.06,1.19,2.17a8.769,8.769,0,0,0,3.13-2.92l-2.08-1.34A6.238,6.238,0,0,1,1217.3,1154.79Zm3.23-5.42c0,0.14-.01.29-0.02,0.43l2.47,0.17c0.01-.2.02-0.4,0.02-0.6v-3.72h-2.47v3.72Zm-18.56-17.32h3.71v2.47h-3.71v-2.47Zm20.73,6.41-2.39.64a6.191,6.191,0,0,1,.22,1.61v1.23H1223v-1.23A8.532,8.532,0,0,0,1222.7,1138.46Zm-2.11-3.73a8.658,8.658,0,0,0-3.63-2.28l-0.75,2.36a6.24,6.24,0,0,1,2.6,1.63Zm-34.7-23.71h2.48l2.96,2.23,1.49-1.98-5.69-4.27-5.69,4.27,1.48,1.98Zm-19.79,2.47h2.47v3.71h-2.47v-3.71Zm0,22.27h2.47v3.71h-2.47v-3.71Zm0-7.42h2.47v3.71h-2.47v-3.71Zm0,22.26h2.47v3.71h-2.47v-3.71Zm1.24-40.51,4.2,3.16,1.49-1.98-5.69-4.27-5.69,4.27,1.48,1.98Z" transform="translate(-1146 -1107)"/>
</svg>
