<svg xmlns="http://www.w3.org/2000/svg" width="57" height="51" viewBox="0 0 57 51">
  <metadata><?xpacket begin="﻿" id="W5M0MpCehiHzreSzNTczkc9d"?>
<x:xmpmeta xmlns:x="adobe:ns:meta/" x:xmptk="Adobe XMP Core 5.6-c138 79.159824, 2016/09/14-01:09:01        ">
   <rdf:RDF xmlns:rdf="http://www.w3.org/1999/02/22-rdf-syntax-ns#">
      <rdf:Description rdf:about=""/>
   </rdf:RDF>
</x:xmpmeta>
                                                                                                    
                                                                                                    
                                                                                                    
                                                                                                    
                                                                                                    
                                                                                                    
                                                                                                    
                                                                                                    
                                                                                                    
                                                                                                    
                                                                                                    
                                                                                                    
                                                                                                    
                                                                                                    
                                                                                                    
                                                                                                    
                                                                                                    
                                                                                                    
                                                                                                    
                                                                                                    
                           
<?xpacket end="w"?></metadata>
<defs>
    <style>
      .cls-1 {
        fill-rule: evenodd;
      }
    </style>
  </defs>
  <path id="Shape_1_copy" data-name="Shape 1 copy" class="cls-1" d="M659.3,1151.57H646.251l-1.013-4.03a4.7,4.7,0,0,0-4.561-3.54H630.323a4.7,4.7,0,0,0-4.561,3.54l-1.013,4.03H611.7a4.7,4.7,0,0,0-4.7,4.68v34.08a4.694,4.694,0,0,0,4.7,4.67h47.6a4.694,4.694,0,0,0,4.7-4.67v-34.08A4.7,4.7,0,0,0,659.3,1151.57Zm-31.806-3.6a2.915,2.915,0,0,1,2.829-2.2h10.354a2.915,2.915,0,0,1,2.829,2.2l0.906,3.6h-2.086l-0.783-3.11a0.884,0.884,0,0,0-.866-0.67H630.323a0.884,0.884,0,0,0-.866.67l-0.783,3.11h-2.085Zm12.992,3.6h-9.972l0.5-2.01h8.961Zm-28.786,1.78h47.6a2.911,2.911,0,0,1,2.225,1.03l-5.794,17.28a3.852,3.852,0,0,1-3.669,2.63H639.248v-1.95a1.838,1.838,0,0,0-1.844-1.83H633.6a1.839,1.839,0,0,0-1.845,1.83v1.95H618.939a3.852,3.852,0,0,1-3.669-2.63l-5.795-17.28A2.914,2.914,0,0,1,611.7,1153.35Zm21.836,22.84v-3.85a0.062,0.062,0,0,1,.06-0.06H637.4a0.061,0.061,0,0,1,.059.06v3.85h-3.927Zm3.927,1.77v1.95a0.055,0.055,0,0,1-.059.06H633.6a0.055,0.055,0,0,1-.059-0.06v-1.95h3.926Zm24.752,12.37a2.917,2.917,0,0,1-2.915,2.9H611.7a2.917,2.917,0,0,1-2.915-2.9v-32.4l4.792,14.29a5.646,5.646,0,0,0,5.362,3.85h12.813v3.84a1.847,1.847,0,0,0,1.844,1.84H637.4a1.847,1.847,0,0,0,1.844-1.84v-3.84h12.813a5.646,5.646,0,0,0,5.362-3.85l4.792-14.29v32.4h0Z" transform="translate(-607 -1144)"/>
</svg>
