<svg xmlns="http://www.w3.org/2000/svg" width="56" height="68" viewBox="0 0 56 68">
  <metadata><?xpacket begin="﻿" id="W5M0MpCehiHzreSzNTczkc9d"?>
<x:xmpmeta xmlns:x="adobe:ns:meta/" x:xmptk="Adobe XMP Core 5.6-c138 79.159824, 2016/09/14-01:09:01        ">
   <rdf:RDF xmlns:rdf="http://www.w3.org/1999/02/22-rdf-syntax-ns#">
      <rdf:Description rdf:about=""/>
   </rdf:RDF>
</x:xmpmeta>
                                                                                                    
                                                                                                    
                                                                                                    
                                                                                                    
                                                                                                    
                                                                                                    
                                                                                                    
                                                                                                    
                                                                                                    
                                                                                                    
                                                                                                    
                                                                                                    
                                                                                                    
                                                                                                    
                                                                                                    
                                                                                                    
                                                                                                    
                                                                                                    
                                                                                                    
                                                                                                    
                           
<?xpacket end="w"?></metadata>
<defs>
    <style>
      .cls-1 {
        fill-rule: evenodd;
      }
    </style>
  </defs>
  <path id="Briefcase" class="cls-1" d="M313.4,994H260.6a1.6,1.6,0,0,1-1.6-1.6V957.165a1.592,1.592,0,0,1,.068-0.473h0a0.023,0.023,0,0,0,0,0s0,0,0,0,0,0,0,0a0,0,0,0,1,0,0h0v0h0a1.6,1.6,0,0,1,.818-0.955,1.582,1.582,0,0,1,.641-0.163c0.027,0,.054,0,0.08,0h7.218l0.936-6.138a1.6,1.6,0,0,1,1.578-1.356h33.309a1.6,1.6,0,0,1,1.579,1.356l0.936,6.138h7.218c0.025,0,.052,0,0.078,0a1.6,1.6,0,0,1,1.143.55,1.621,1.621,0,0,1,.3.517h0s0,0,0,0h0l0,0h0l0,0h0s0,0,0,.005h0l0,0h0s0,0,0,0h0s0,0,0,0h0a0.023,0.023,0,0,0,0,0h0a0.006,0.006,0,0,0,0,0h0a0.006,0.006,0,0,1,0,0,0,0,0,0,1,0,0,0,0,0,0,0,0,0h0a0.008,0.008,0,0,1,0,0,0,0,0,0,1,0,0s0,0,0,0V956.7s0,0,0,0v0h0a0.006,0.006,0,0,1,0,0h0v0h0a1.594,1.594,0,0,1,.062.454V992.4A1.6,1.6,0,0,1,313.4,994ZM262.2,990.8h49.61V960.482l-17.437,14v1.5a1.6,1.6,0,0,1-1.6,1.6H281.229a1.6,1.6,0,0,1-1.6-1.6V974.19L262.2,960.445V990.8h0Zm20.63-16.419h8.35v-2.841h-8.35v2.841h0Zm-1.6-6.036h11.543a1.6,1.6,0,0,1,1.6,1.6v0.434l14.491-11.631H265.205l14.427,11.373v-0.176A1.6,1.6,0,0,1,281.228,968.349Zm-10.167-12.794h31.878l-0.656-4.3H271.717ZM260.6,951.914a1.6,1.6,0,0,1-1.6-1.6V927.6a1.6,1.6,0,0,1,1.6-1.6h8.8a1.6,1.6,0,0,1,1.6,1.6v3.666h7.2a1.6,1.6,0,0,1,1.6,1.6v2.926H287a1.6,1.6,0,0,1,1.6,1.6v6.156a1.6,1.6,0,0,1-3.194,0v-4.558H279.8v4.558a1.6,1.6,0,1,1-3.194,0v-9.082H271v9.082a1.6,1.6,0,0,1-3.194,0V929.2H262.2v21.122A1.6,1.6,0,0,1,260.6,951.914Z" transform="translate(-259 -926)"/>
</svg>
