<svg xmlns="http://www.w3.org/2000/svg" width="42" height="54.97" viewBox="0 0 42 54.97">
  <metadata><?xpacket begin="﻿" id="W5M0MpCehiHzreSzNTczkc9d"?>
<x:xmpmeta xmlns:x="adobe:ns:meta/" x:xmptk="Adobe XMP Core 5.6-c138 79.159824, 2016/09/14-01:09:01        ">
   <rdf:RDF xmlns:rdf="http://www.w3.org/1999/02/22-rdf-syntax-ns#">
      <rdf:Description rdf:about=""/>
   </rdf:RDF>
</x:xmpmeta>
                                                                                                    
                                                                                                    
                                                                                                    
                                                                                                    
                                                                                                    
                                                                                                    
                                                                                                    
                                                                                                    
                                                                                                    
                                                                                                    
                                                                                                    
                                                                                                    
                                                                                                    
                                                                                                    
                                                                                                    
                                                                                                    
                                                                                                    
                                                                                                    
                                                                                                    
                                                                                                    
                           
<?xpacket end="w"?></metadata>
<defs>
    <style>
      .cls-1 {
        fill: #49474f;
        fill-rule: evenodd;
      }
    </style>
  </defs>
  <path class="cls-1" d="M751.4,3729.07h-3.079l0.28-2.7a0.938,0.938,0,1,0-1.867-.19l-2.193,23.04a6.528,6.528,0,0,1-6.486,5.92H725.549a6.432,6.432,0,0,1-6.487-5.92l-2.1-22.02H736a0.93,0.93,0,1,0,0-1.86H716.4a0.4,0.4,0,0,0-.233.05,0.743,0.743,0,0,0-.326-0.05,0.942,0.942,0,0,0-.84,1.03l2.193,23.04a8.3,8.3,0,0,0,8.353,7.59h12.506a8.364,8.364,0,0,0,8.352-7.59l0.187-2.19H751.4a5.606,5.606,0,0,0,5.6-5.58v-6.99A5.606,5.606,0,0,0,751.4,3729.07Zm0,16.29h-4.619l1.353-14.43h3.22a3.735,3.735,0,0,1,3.733,3.72v6.99h0.046A3.741,3.741,0,0,1,751.4,3745.36Zm-12.132-19.09a0.935,0.935,0,0,0,.933.93h1.4a0.93,0.93,0,1,0,0-1.86h-1.4A0.935,0.935,0,0,0,739.268,3726.27Zm-15.353-4.89a0.941,0.941,0,0,0,.887.7,0.4,0.4,0,0,0,.233-0.04,0.938,0.938,0,0,0,.654-1.17l-1.027-3.63a5.943,5.943,0,0,1,.607-4.7l0.373-.61a7.439,7.439,0,0,0,1.073-3.77,0.933,0.933,0,0,0-1.866,0,5.793,5.793,0,0,1-.794,2.84l-0.373.61a7.773,7.773,0,0,0-.793,6.19Zm7,0a0.939,0.939,0,0,0,.887.7,0.4,0.4,0,0,0,.233-0.04,0.938,0.938,0,0,0,.653-1.17l-1.026-3.63a5.942,5.942,0,0,1,.606-4.7l0.374-.65a8.264,8.264,0,0,0,.886-5.78l-0.84-3.4a0.934,0.934,0,0,0-1.82.42l0.84,3.36a6.173,6.173,0,0,1-.653,4.37l-0.373.61a7.777,7.777,0,0,0-.794,6.19Zm7,0a0.939,0.939,0,0,0,.886.7,0.4,0.4,0,0,0,.233-0.04,0.938,0.938,0,0,0,.654-1.17l-1.027-3.63a5.947,5.947,0,0,1,.607-4.7,0.92,0.92,0,1,0-1.587-.93,7.773,7.773,0,0,0-.793,6.19Z" transform="translate(-715 -3702.03)"/>
</svg>
