<svg xmlns="http://www.w3.org/2000/svg" viewBox="0 0 187.86 141.27"><defs><style>.cls-1{fill:#a0a0a0;}</style></defs><title>logo-gray</title><g id="Слой_2" data-name="Слой 2"><g id="svg3818"><g id="g3826"><g id="g4151"><path id="path4088" class="cls-1" d="M21.15,119.59c-.51-1.87-1.53-5.51-6.88-5.51-3.11,0-7.81,2.23-7.81,11,0,5.56,2.35,10.71,7.81,10.71,3.59,0,6.12-2.17,6.88-6h6.46c-1.28,6.76-5.69,11.45-13.46,11.45C5.9,141.27,0,135.66,0,125c0-10.86,6.24-16.36,14.23-16.36,9.28,0,13,6.41,13.38,11H21.15Z"/><path id="path4090" class="cls-1" d="M35.52,126.18l7.6-8.72h7.4l-8.08,8.88,8.29,14.11H43.5L38,130.58l-2.5,2.61v7.26h-6v-23h6v8.72Z"/><path id="path4092" class="cls-1" d="M72.79,128.91c0,8.29-5.56,12.15-11.72,12.15S49.32,137.26,49.32,129s5.61-12.1,11.75-12.1,11.72,3.76,11.72,12.05m-17.27,0c0,2.95.89,7,5.55,7s5.51-4.05,5.51-7-.85-7-5.51-7-5.55,4-5.55,7"/><path id="path4094" class="cls-1" d="M95.44,117.46v23h-6V122.3H83v7.09c0,8.8-2.65,11.57-6.88,11.57a13,13,0,0,1-3.67-.5V136a6,6,0,0,0,1.78.17c1.81,0,2.75-.89,2.75-7.9V117.46h18.5Z"/><path id="path4096" class="cls-1" d="M104.55,126.18l7.6-8.72h7.4l-8.08,8.88,8.3,14.11h-7.23l-5.47-9.88-2.51,2.61v7.26h-6v-23h6Z"/><path id="path4098" class="cls-1" d="M141.82,128.91c0,8.29-5.55,12.15-11.71,12.15s-11.75-3.8-11.75-12.09,5.6-12.1,11.75-12.1,11.71,3.76,11.71,12.05m-17.26,0c0,2.95.89,7,5.55,7s5.52-4.05,5.52-7-.89-7-5.52-7-5.55,4-5.55,7"/><path id="path4100" class="cls-1" d="M143.77,117.46h10.38c5.14,0,8.89,2.1,8.89,5.94,0,2.65-1.88,4.35-4.28,5,2.35.56,5,2.06,5,5.82,0,4.26-3.22,6.28-8.43,6.28H143.77Zm6,9.31h3.93c2,0,3.42-.8,3.42-2.6s-1.36-2.56-3.37-2.56h-4Zm0,9.54h4.43c2.23,0,3.61-.68,3.61-3,0-2-1.45-2.94-3.68-2.94h-4.36Z"/><path id="path4102" class="cls-1" d="M187.86,128.91c0,8.29-5.54,12.15-11.71,12.15s-11.76-3.8-11.76-12.09,5.61-12.1,11.76-12.1,11.71,3.76,11.71,12.05m-17.27,0c0,2.95.91,7,5.56,7s5.51-4.05,5.51-7-.85-7-5.51-7-5.56,4-5.56,7"/><path id="path4104" class="cls-1" d="M43.82,103.42c5.14,0,17.79-.9,27.24-7.8v5.24H90.14l0-23,8-8.24,17.34,31.27h22.89L112.08,56.17,137.67,28H114.24L90.16,55.64V2.57H71.07V11C65.25,4.72,55.83,0,41.13,0,9.32,0,3.35,19.35,3.35,30.19c0,14.89,8,23.16,21.94,26.54l19.76,4.87c10.42,2.58,17.88,4.47,17.88,12.18,0,10.29-10.84,12.72-20.59,12.72-17.87,0-20.84-10.42-20.84-16H1.86c0,12.18,6.23,32.89,42,32.89m13-58.61L32.88,39C28.8,38,22.44,36.4,22.44,28.7c0-8.8,9.35-11.78,17.2-11.78,17.87,0,19.5,10.43,20,14.89h11.4V50.13a54.89,54.89,0,0,0-14.24-5.32"/></g></g></g></g></svg>