<svg xmlns="http://www.w3.org/2000/svg" width="50" height="30" viewBox="0 0 50 30">
  <metadata><?xpacket begin="﻿" id="W5M0MpCehiHzreSzNTczkc9d"?>
<x:xmpmeta xmlns:x="adobe:ns:meta/" x:xmptk="Adobe XMP Core 5.6-c138 79.159824, 2016/09/14-01:09:01        ">
   <rdf:RDF xmlns:rdf="http://www.w3.org/1999/02/22-rdf-syntax-ns#">
      <rdf:Description rdf:about=""/>
   </rdf:RDF>
</x:xmpmeta>
                                                                                                    
                                                                                                    
                                                                                                    
                                                                                                    
                                                                                                    
                                                                                                    
                                                                                                    
                                                                                                    
                                                                                                    
                                                                                                    
                                                                                                    
                                                                                                    
                                                                                                    
                                                                                                    
                                                                                                    
                                                                                                    
                                                                                                    
                                                                                                    
                                                                                                    
                                                                                                    
                           
<?xpacket end="w"?></metadata>
<defs>
    <style>
      .cls-1 {
        fill: #49474f;
        fill-rule: evenodd;
      }
    </style>
  </defs>
  <path class="cls-1" d="M360.8,3731h-2.134v-7.78a2.228,2.228,0,0,0-2.222-2.22H317.555a2.228,2.228,0,0,0-2.222,2.22V3731H313.2a1.2,1.2,0,0,0-1.2,1.2v14.26a1.217,1.217,0,0,0,1.211,1.21h47.578a1.218,1.218,0,0,0,1.211-1.21V3732.2A1.207,1.207,0,0,0,360.8,3731Zm-43.245-7.78h38.889V3731h-2.133a1.2,1.2,0,0,0-1.2,1.2v5.47H320.889v-5.46a1.211,1.211,0,0,0-1.211-1.21h-2.123v-7.78Zm42.223,22.22H314.222v-12.22h4.445v4.45h-1.112a1.11,1.11,0,1,0,0,2.22h38.889a1.11,1.11,0,1,0,0-2.22h-1.111v-4.45h4.445v12.22Zm-36.667,3.34h-6.667a1.11,1.11,0,1,0,0,2.22h6.667A1.11,1.11,0,1,0,323.111,3748.78Zm34.444,0h-6.666a1.11,1.11,0,1,0,0,2.22h6.666A1.11,1.11,0,1,0,357.555,3748.78Z" transform="translate(-312 -3721)"/>
</svg>
