<svg xmlns="http://www.w3.org/2000/svg" viewBox="0 0 111.4 121.31"><defs><style>.cls-1,.cls-2{fill:#fff;}.cls-1{opacity:0.6;}</style></defs><title>white-figure</title><g id="Слой_2" data-name="Слой 2"><g id="svg3818"><path class="cls-1" d="M97.54,100.93q-14.13,7.86-28,16.21t-27.71,0q-13.85-8.35-28-16.21T0,76.86Q.29,60.66,0,44.45T13.86,20.38Q28,12.52,41.85,4.17t27.71,0q13.85,8.35,28,16.21t13.85,24.07q-.28,16.21,0,32.41T97.54,100.93Z"/><path class="cls-2" d="M93.59,97.13q-12.8,7.12-25.35,14.68t-25.09,0Q30.61,104.25,17.8,97.13T5.26,75.33q.25-14.68,0-29.36T17.8,24.18Q30.61,17.06,43.15,9.5t25.09,0q12.55,7.56,25.35,14.68T106.14,46q-.25,14.68,0,29.36T93.59,97.13Z"/></g></g></svg>